<svg width="24" height="24" viewBox="0 0 24 24" fill="none" xmlns="http://www.w3.org/2000/svg">
<path d="M9.29 15.46L13.17 11.58L9.29 7.70001C9.19742 7.60742 9.12398 7.49751 9.07387 7.37655C9.02377 7.25559 8.99798 7.12594 8.99798 6.99501C8.99798 6.86408 9.02377 6.73443 9.07387 6.61346C9.12398 6.4925 9.19742 6.38259 9.29 6.29001C9.38258 6.19742 9.49249 6.12398 9.61346 6.07388C9.73442 6.02377 9.86407 5.99799 9.995 5.99799C10.1259 5.99799 10.2556 6.02377 10.3765 6.07388C10.4975 6.12398 10.6074 6.19742 10.7 6.29001L15.29 10.88C15.68 11.27 15.68 11.9 15.29 12.29L10.7 16.88C10.6075 16.9727 10.4976 17.0463 10.3766 17.0964C10.2557 17.1466 10.126 17.1724 9.995 17.1724C9.86403 17.1724 9.73435 17.1466 9.61338 17.0964C9.4924 17.0463 9.38251 16.9727 9.29 16.88C8.91 16.49 8.9 15.85 9.29 15.46V15.46Z" fill="#D4D5D8"/>
</svg>
