<svg width="24" height="24" viewBox="0 0 24 24" fill="none" xmlns="http://www.w3.org/2000/svg">
<path d="M15.29 15.46L11.41 11.58L15.29 7.7C15.3826 7.60742 15.456 7.49751 15.5061 7.37654C15.5562 7.25558 15.582 7.12593 15.582 6.995C15.582 6.86407 15.5562 6.73442 15.5061 6.61346C15.456 6.49249 15.3826 6.38258 15.29 6.29C15.1974 6.19742 15.0875 6.12398 14.9665 6.07387C14.8456 6.02377 14.7159 5.99798 14.585 5.99798C14.4541 5.99798 14.3244 6.02377 14.2035 6.07387C14.0825 6.12398 13.9726 6.19742 13.88 6.29L9.29 10.88C9.1973 10.9725 9.12375 11.0824 9.07357 11.2034C9.02339 11.3243 8.99756 11.454 8.99756 11.585C8.99756 11.716 9.02339 11.8456 9.07357 11.9666C9.12375 12.0876 9.1973 12.1975 9.29 12.29L13.88 16.88C14.27 17.27 14.9 17.27 15.29 16.88C15.67 16.49 15.68 15.85 15.29 15.46V15.46Z" fill="#D4D5D8"/>
</svg>
