<svg width="24" height="24" viewBox="0 0 24 24" fill="none" xmlns="http://www.w3.org/2000/svg">
<path d="M19.463 5.576C18.775 4.826 17.534 4.78 16.707 5.607L8.607 13.707C8.397 13.917 8.397 14.183 8.607 14.393C8.817 14.603 9.083 14.603 9.293 14.393L15.993 7.693C16.1816 7.51084 16.4342 7.41005 16.6964 7.41232C16.9586 7.4146 17.2094 7.51977 17.3948 7.70518C17.5802 7.89059 17.6854 8.1414 17.6877 8.4036C17.69 8.66579 17.5892 8.9184 17.407 9.107L10.707 15.807C10.4787 16.042 10.2055 16.2287 9.90373 16.3563C9.60194 16.4838 9.27763 16.5495 8.95 16.5495C8.62237 16.5495 8.29806 16.4838 7.99627 16.3563C7.69448 16.2287 7.42134 16.042 7.193 15.807C6.95804 15.5787 6.77126 15.3055 6.64372 15.0037C6.51618 14.7019 6.45047 14.3776 6.45047 14.05C6.45047 13.7224 6.51618 13.3981 6.64372 13.0963C6.77126 12.7945 6.95804 12.5213 7.193 12.293L15.293 4.193C16.86 2.625 19.408 2.574 20.923 4.208C22.475 5.777 22.52 8.312 20.893 9.821L11.407 19.307C9.217 21.497 5.783 21.497 3.593 19.307C1.403 17.117 1.403 13.683 3.593 11.493L11.693 3.393C11.8816 3.21084 12.1342 3.11005 12.3964 3.11232C12.6586 3.1146 12.9094 3.21977 13.0948 3.40518C13.2802 3.59059 13.3854 3.8414 13.3877 4.1036C13.39 4.36579 13.2892 4.6184 13.107 4.807L5.007 12.907C3.597 14.317 3.597 16.483 5.007 17.893C6.417 19.303 8.583 19.303 9.993 17.893L19.493 8.393L19.524 8.363C20.274 7.676 20.32 6.434 19.493 5.607L19.463 5.576V5.576Z" fill="#2510D7"/>
</svg>
